<svg id="Layer_1" data-name="Layer 1" xmlns="http://www.w3.org/2000/svg" viewBox="0 0 100 100"><defs><style>.cls-1{fill:#1db954;}.cls-2{fill:#fff;stroke:#fff;stroke-miterlimit:10;}</style></defs><title>spotiLogo</title><circle class="cls-1" cx="50" cy="50" r="50"/><g id="Layer_2" data-name="Layer 2"><path d="M69.53,84.24,10.17,89.47c-2.26.2-3.53-1.63-2.86-4.09L25.16,20.57a6.76,6.76,0,0,1,5.31-4.81l59.36-5.23c2.26-.2,3.53,1.63,2.86,4.09L74.84,79.43A6.76,6.76,0,0,1,69.53,84.24Z" transform="translate(0 0)"/><path class="cls-2" d="M34.27,69.05l5.33-3.63c3.22,7.35,10.44,9,17.12,6.85s10.34-6.89,8.17-13.69C60.26,44.06,34.4,56.56,29,39.46,26.19,30.83,31.29,23,39.64,20.36c6.6-2.1,13-1.07,18.38,3.78L54.3,28.83a12.41,12.41,0,0,0-13-3c-4.7,1.49-8,6-6.4,11.11,4,12.61,30.18,1.06,36,19.2C74,66,68.46,74.71,58.47,77.89,49.33,80.81,39.07,78.61,34.27,69.05Z" transform="translate(0 0)"/></g></svg>