<svg xmlns="http://www.w3.org/2000/svg" id="Layer_1" data-name="Layer 1" viewBox="0 0 103.1 65.13"><defs><style>.cls-1{fill:#191414}.cls-2{fill:#1db954}.cls-3{fill:#f1c40f}.cls-4{fill:#3498db}.cls-5{fill:#e74c3c}</style></defs><title>BrightBackgroundIcon</title><path d="M1003.58,525.84a13,13,0,0,0-1.09-3.4,11.6,11.6,0,0,0-2.35-3.31,11.81,11.81,0,0,0-3.77-2.47,15,15,0,0,0-10-.22,11.65,11.65,0,0,0-3.64,2.1,9.16,9.16,0,0,0-3.23,7,8.28,8.28,0,0,0,1.93,5.5,9.92,9.92,0,0,0,5.7,3.14l8.89,1.93q7.47,1.68,11.45,6a15.23,15.23,0,0,1,4,10.65,16.07,16.07,0,0,1-1.42,6.63,17,17,0,0,1-4.11,5.62,20.47,20.47,0,0,1-6.46,3.89,23.23,23.23,0,0,1-8.55,1.47,25.2,25.2,0,0,1-9.36-1.59,21.79,21.79,0,0,1-6.71-4.11,18.94,18.94,0,0,1-4.23-5.66,20.85,20.85,0,0,1-1.93-6.33l7.88-2.52a16.91,16.91,0,0,0,1.22,4.82,12.12,12.12,0,0,0,2.77,4.07,13.48,13.48,0,0,0,4.36,2.81,15.43,15.43,0,0,0,5.91,1q6.12,0,9.18-2.77a8.77,8.77,0,0,0,.88-12.46,11.53,11.53,0,0,0-6.7-3.48l-8.47-1.84A20.87,20.87,0,0,1,975.27,537q-4.07-4.07-4.06-10.78a15.45,15.45,0,0,1,1.51-6.71,18.2,18.2,0,0,1,4.15-5.62,20.34,20.34,0,0,1,6.25-3.89,20,20,0,0,1,7.71-1.48,23.85,23.85,0,0,1,8.6,1.39,18.86,18.86,0,0,1,6,3.56,17.13,17.13,0,0,1,3.74,4.79,20,20,0,0,1,1.84,5Z" class="cls-1" transform="translate(-908.37 -506.9)"/><rect width="48.62" height="9.05" y="18.69" class="cls-2" rx="4"/><rect width="48.7" height="9.05" x="8.29" y="56.08" class="cls-3" rx="4"/><rect width="48.62" height="9.05" y="37.39" class="cls-4" rx="4"/><rect width="48.7" height="9.05" x="8.29" class="cls-5" rx="4"/></svg>