<svg id="Layer_1" data-name="Layer 1" xmlns="http://www.w3.org/2000/svg" viewBox="0 0 443.09 78.23"><defs><style>.cls-1{fill:#191414;}.cls-2{fill:#1db954;}.cls-3{fill:#f1c40f;}.cls-4{fill:#3498db;}.cls-5{fill:#e74c3c;}</style></defs><title>BrightBackground</title><path class="cls-1" d="M833.79,519.69a13.24,13.24,0,0,0-1.1-3.4,11.56,11.56,0,0,0-2.34-3.31,11.91,11.91,0,0,0-3.78-2.47,14.88,14.88,0,0,0-10-.21,11.62,11.62,0,0,0-3.65,2.1,9.34,9.34,0,0,0-2.39,3.14,9.14,9.14,0,0,0-.84,3.9,8.29,8.29,0,0,0,1.93,5.49,9.93,9.93,0,0,0,5.71,3.15l8.89,1.93q7.46,1.68,11.44,6a15.18,15.18,0,0,1,4,10.65,16.11,16.11,0,0,1-1.43,6.63,16.75,16.75,0,0,1-4.11,5.61,20.3,20.3,0,0,1-6.46,3.9,23.37,23.37,0,0,1-8.55,1.47,25.11,25.11,0,0,1-9.35-1.59,21.86,21.86,0,0,1-6.71-4.11,18.53,18.53,0,0,1-4.23-5.67,20.71,20.71,0,0,1-1.93-6.32l7.88-2.52a16.89,16.89,0,0,0,1.21,4.82,12.42,12.42,0,0,0,2.77,4.07,13.7,13.7,0,0,0,4.36,2.81,15.52,15.52,0,0,0,5.92,1.05q6.12,0,9.18-2.77a8.79,8.79,0,0,0,.88-12.46,11.56,11.56,0,0,0-6.71-3.48l-8.47-1.84a20.73,20.73,0,0,1-10.44-5.5q-4.07-4.06-4.07-10.77a15.59,15.59,0,0,1,1.51-6.71,18.36,18.36,0,0,1,4.15-5.62,20.67,20.67,0,0,1,6.25-3.9,20.25,20.25,0,0,1,7.72-1.47,23.57,23.57,0,0,1,8.59,1.39,18.8,18.8,0,0,1,6,3.56,17.38,17.38,0,0,1,3.73,4.78,19.92,19.92,0,0,1,1.84,5Z" transform="translate(-738.57 -500.75)"/><path class="cls-1" d="M849.63,579V522.71h7.64V529a13.89,13.89,0,0,1,5.11-5.11,15.81,15.81,0,0,1,8.39-2.1,18.49,18.49,0,0,1,8,1.64,16.19,16.19,0,0,1,5.79,4.48,20.52,20.52,0,0,1,3.52,6.71,27.24,27.24,0,0,1,1.22,8.22,26.77,26.77,0,0,1-1.26,8.38,20,20,0,0,1-3.69,6.76,17.38,17.38,0,0,1-5.92,4.53,18.41,18.41,0,0,1-7.92,1.63,15.83,15.83,0,0,1-8-1.93,13.79,13.79,0,0,1-5-4.61V579Zm31.62-36.15a17.83,17.83,0,0,0-.84-5.58,13.74,13.74,0,0,0-2.35-4.44,10.69,10.69,0,0,0-3.73-3,11.25,11.25,0,0,0-5-1.09,11,11,0,0,0-4.9,1.09,11.59,11.59,0,0,0-3.82,3,13.16,13.16,0,0,0-2.43,4.44,17.83,17.83,0,0,0-.84,5.58,18.82,18.82,0,0,0,.84,5.74,13.18,13.18,0,0,0,2.43,4.54,11.75,11.75,0,0,0,13.67,2.93,11,11,0,0,0,3.73-2.93,13.28,13.28,0,0,0,2.39-4.54A18.82,18.82,0,0,0,881.25,542.84Z" transform="translate(-738.57 -500.75)"/><path class="cls-1" d="M916.64,521.45a20.71,20.71,0,0,1,8.31,1.64,20.34,20.34,0,0,1,6.54,4.49,19.82,19.82,0,0,1,4.27,6.75,23.32,23.32,0,0,1,1.51,8.51,23.7,23.7,0,0,1-1.51,8.56,19.8,19.8,0,0,1-4.27,6.79,20.34,20.34,0,0,1-6.54,4.49,22,22,0,0,1-16.61,0,20.12,20.12,0,0,1-6.54-4.49,19.82,19.82,0,0,1-4.28-6.79,23.7,23.7,0,0,1-1.51-8.56,23.32,23.32,0,0,1,1.51-8.51,19.84,19.84,0,0,1,4.28-6.75,20.12,20.12,0,0,1,6.54-4.49A20.67,20.67,0,0,1,916.64,521.45Zm0,35.81a12.44,12.44,0,0,0,4.78-.92,11.42,11.42,0,0,0,4-2.77,13,13,0,0,0,2.76-4.52,17.43,17.43,0,0,0,1-6.21,17.13,17.13,0,0,0-1-6.17,13.08,13.08,0,0,0-2.76-4.48,11.52,11.52,0,0,0-4-2.76,12.75,12.75,0,0,0-9.56,0,11.4,11.4,0,0,0-4,2.76,13.1,13.1,0,0,0-2.77,4.48,17.35,17.35,0,0,0-1,6.17,17.66,17.66,0,0,0,1,6.21,13,13,0,0,0,2.77,4.52,11.29,11.29,0,0,0,4,2.77A12.44,12.44,0,0,0,916.64,557.26Z" transform="translate(-738.57 -500.75)"/><path class="cls-1" d="M957.49,522.71h8.72v7.13h-8.72v21a6,6,0,0,0,1.25,4.15c.84.92,2.3,1.38,4.36,1.38.51,0,1.07,0,1.68-.08a6.44,6.44,0,0,0,1.43-.25v6.71c-.34.11-1,.26-1.93.46a17.81,17.81,0,0,1-3.44.29,11.17,11.17,0,0,1-8.22-3q-3-3-3-8.51V529.84h-7.71v-7.13h2.18q3.27,0,4.74-1.76a6.71,6.71,0,0,0,1.46-4.44V510h7.22Z" transform="translate(-738.57 -500.75)"/><path class="cls-1" d="M974.93,507.45a5.53,5.53,0,0,1,1.63-4.07,5.45,5.45,0,0,1,4-1.64,5.59,5.59,0,0,1,5.7,5.71,5.42,5.42,0,0,1-1.63,4,5.55,5.55,0,0,1-4.07,1.64,5.58,5.58,0,0,1-5.62-5.62Zm1.76,55.6V522.71h7.8v40.34Z" transform="translate(-738.57 -500.75)"/><path class="cls-1" d="M1057.79,503.59h8.64l-22.9,59.46h-8.13L1013,503.59h8.72l17.94,48.9Z" transform="translate(-738.57 -500.75)"/><path class="cls-1" d="M1086.64,521.45a20.63,20.63,0,0,1,8.3,1.64,20.27,20.27,0,0,1,6.55,4.49,20,20,0,0,1,4.27,6.75,23.32,23.32,0,0,1,1.51,8.51,23.7,23.7,0,0,1-1.51,8.56,20,20,0,0,1-4.27,6.79,20.27,20.27,0,0,1-6.55,4.49,21.95,21.95,0,0,1-16.6,0,20.12,20.12,0,0,1-6.54-4.49,19.67,19.67,0,0,1-4.28-6.79,23.7,23.7,0,0,1-1.51-8.56,23.32,23.32,0,0,1,1.51-8.51,19.69,19.69,0,0,1,4.28-6.75,20.12,20.12,0,0,1,6.54-4.49A20.63,20.63,0,0,1,1086.64,521.45Zm0,35.81a12.44,12.44,0,0,0,4.78-.92,11.42,11.42,0,0,0,4-2.77,13.13,13.13,0,0,0,2.76-4.52,17.43,17.43,0,0,0,1-6.21,17.13,17.13,0,0,0-1-6.17,13.24,13.24,0,0,0-2.76-4.48,11.52,11.52,0,0,0-4-2.76,12.75,12.75,0,0,0-9.56,0,11.52,11.52,0,0,0-4,2.76,13.24,13.24,0,0,0-2.76,4.48,17.35,17.35,0,0,0-1,6.17,17.66,17.66,0,0,0,1,6.21,13.13,13.13,0,0,0,2.76,4.52,11.42,11.42,0,0,0,4,2.77A12.44,12.44,0,0,0,1086.64,557.26Z" transform="translate(-738.57 -500.75)"/><path class="cls-1" d="M1127.48,522.71h8.72v7.13h-8.72v21a6,6,0,0,0,1.26,4.15c.84.92,2.29,1.38,4.36,1.38.5,0,1.06,0,1.68-.08a6.34,6.34,0,0,0,1.42-.25v6.71c-.33.11-1,.26-1.93.46a17.7,17.7,0,0,1-3.43.29,11.17,11.17,0,0,1-8.22-3c-2-2-3-4.82-3-8.51V529.84h-7.72v-7.13h2.18q3.27,0,4.74-1.76a6.72,6.72,0,0,0,1.47-4.44V510h7.21Z" transform="translate(-738.57 -500.75)"/><path class="cls-1" d="M1181.41,551.57a17.9,17.9,0,0,1-6.42,9,18.75,18.75,0,0,1-5.24,2.73,20.12,20.12,0,0,1-6.46,1,21,21,0,0,1-7.71-1.43,18.87,18.87,0,0,1-6.5-4.19,19.79,19.79,0,0,1-4.45-6.79,24.15,24.15,0,0,1-1.63-9.15,22.82,22.82,0,0,1,1.59-8.68,21.8,21.8,0,0,1,4.24-6.71A18.83,18.83,0,0,1,1155,523a18,18,0,0,1,7.3-1.55,21,21,0,0,1,8.26,1.55,16.74,16.74,0,0,1,6.08,4.32,19.25,19.25,0,0,1,3.73,6.67,27,27,0,0,1,1.3,8.6c0,.5,0,1,0,1.43a8,8,0,0,1-.13,1.08h-30.36a14.13,14.13,0,0,0,1,4.95,11.5,11.5,0,0,0,2.56,3.9,11.29,11.29,0,0,0,3.85,2.52,12.88,12.88,0,0,0,4.74.88q4.95,0,7.55-2.35a13.66,13.66,0,0,0,3.78-5.79Zm-8-12.84a11.07,11.07,0,0,0-2.93-7.34q-2.77-3-8.14-3a10.87,10.87,0,0,0-4.49.88,10.35,10.35,0,0,0-3.35,2.34,12.14,12.14,0,0,0-2.22,3.32,10.2,10.2,0,0,0-.93,3.77Z" transform="translate(-738.57 -500.75)"/><rect class="cls-2" y="18.69" width="48.62" height="9.05" rx="4"/><rect class="cls-3" x="8.29" y="56.08" width="48.7" height="9.05" rx="4"/><rect class="cls-4" y="37.39" width="48.62" height="9.05" rx="4"/><rect class="cls-5" x="8.29" width="48.7" height="9.05" rx="4"/></svg>