<svg xmlns="http://www.w3.org/2000/svg" id="Layer_1" data-name="Layer 1" viewBox="0 0 467.02 128"><defs><style>.cls-1{fill:#191414}.cls-2{fill:#1db954}.cls-3{fill:#f1c40f}.cls-4{fill:#3498db}.cls-5{fill:#e74c3c}.cls-6{fill:none;stroke:#191414;stroke-miterlimit:10;stroke-width:4px}</style></defs><title>BrightBackgroundCircle</title><path d="M833,526.15a13,13,0,0,0-1.09-3.39,11.47,11.47,0,0,0-2.35-3.31,11.59,11.59,0,0,0-3.77-2.47,15,15,0,0,0-10-.22,11.4,11.4,0,0,0-3.65,2.1,9.28,9.28,0,0,0-2.39,3.15,9.09,9.09,0,0,0-.84,3.89,8.28,8.28,0,0,0,1.93,5.5,10,10,0,0,0,5.71,3.14l8.88,1.93q7.47,1.68,11.45,6a15.19,15.19,0,0,1,4,10.65,16.11,16.11,0,0,1-1.43,6.63,16.88,16.88,0,0,1-4.11,5.62,20.47,20.47,0,0,1-6.46,3.89,23.2,23.2,0,0,1-8.55,1.47,25.11,25.11,0,0,1-9.35-1.59,21.56,21.56,0,0,1-6.71-4.11,18.81,18.81,0,0,1-4.24-5.66,20.85,20.85,0,0,1-1.93-6.33l7.89-2.52a16.57,16.57,0,0,0,1.21,4.82,12.42,12.42,0,0,0,2.77,4.07,13.48,13.48,0,0,0,4.36,2.81,15.5,15.5,0,0,0,5.91,1q6.13,0,9.19-2.77a8.79,8.79,0,0,0,.88-12.46,11.59,11.59,0,0,0-6.71-3.48l-8.47-1.84a20.79,20.79,0,0,1-10.44-5.49q-4.08-4.07-4.07-10.78a15.45,15.45,0,0,1,1.51-6.71,18.2,18.2,0,0,1,4.15-5.62,20.34,20.34,0,0,1,6.25-3.89,20,20,0,0,1,7.71-1.48,23.85,23.85,0,0,1,8.6,1.39,18.75,18.75,0,0,1,6,3.56,17.23,17.23,0,0,1,3.74,4.78,19.92,19.92,0,0,1,1.84,5Z" class="cls-1" transform="translate(-726.28 -476.16)"/><path d="M861.28,583.81V527.53h7.63v6.3a14,14,0,0,1,5.12-5.12,15.81,15.81,0,0,1,8.39-2.1,18.64,18.64,0,0,1,8,1.64,16.18,16.18,0,0,1,5.78,4.48,20.55,20.55,0,0,1,3.53,6.71,27.62,27.62,0,0,1,1.21,8.23,26.86,26.86,0,0,1-1.26,8.38,20,20,0,0,1-3.68,6.76,17.35,17.35,0,0,1-5.92,4.52,18.41,18.41,0,0,1-7.92,1.64,16,16,0,0,1-8.06-1.93,14,14,0,0,1-5-4.62v21.39Zm31.62-36.14a17.85,17.85,0,0,0-.84-5.59,14,14,0,0,0-2.35-4.44,10.87,10.87,0,0,0-3.73-3,11.12,11.12,0,0,0-5-1.1,10.92,10.92,0,0,0-4.9,1.1,11.7,11.7,0,0,0-3.82,3,13.08,13.08,0,0,0-2.43,4.44,17.85,17.85,0,0,0-.84,5.59,18.82,18.82,0,0,0,.84,5.74,13,13,0,0,0,2.43,4.53,11.07,11.07,0,0,0,3.82,2.93,12.08,12.08,0,0,0,9.85,0,10.85,10.85,0,0,0,3.73-2.93,13.4,13.4,0,0,0,2.39-4.53A18.82,18.82,0,0,0,892.9,547.67Z" class="cls-1" transform="translate(-726.28 -476.16)"/><path d="M928.29,526.28a20.46,20.46,0,0,1,8.3,1.64,20.25,20.25,0,0,1,6.55,4.48,19.82,19.82,0,0,1,4.27,6.75,23.33,23.33,0,0,1,1.51,8.52,23.65,23.65,0,0,1-1.51,8.55,19.7,19.7,0,0,1-4.27,6.79,20.27,20.27,0,0,1-6.55,4.49,21.95,21.95,0,0,1-16.6,0,20.12,20.12,0,0,1-6.54-4.49,19.58,19.58,0,0,1-4.28-6.79,23.65,23.65,0,0,1-1.51-8.55,23.33,23.33,0,0,1,1.51-8.52,19.69,19.69,0,0,1,4.28-6.75,20.1,20.1,0,0,1,6.54-4.48A20.46,20.46,0,0,1,928.29,526.28Zm0,35.81a12.63,12.63,0,0,0,4.78-.92,11.69,11.69,0,0,0,4-2.77,13.18,13.18,0,0,0,2.76-4.53,17.38,17.38,0,0,0,1-6.2,17.09,17.09,0,0,0-1-6.17A13.28,13.28,0,0,0,937.1,537a11.52,11.52,0,0,0-4-2.76,12.75,12.75,0,0,0-9.56,0,11.52,11.52,0,0,0-4,2.76,13.28,13.28,0,0,0-2.76,4.49,17.31,17.31,0,0,0-1,6.17,17.6,17.6,0,0,0,1,6.2,13.18,13.18,0,0,0,2.76,4.53,11.69,11.69,0,0,0,4,2.77A12.63,12.63,0,0,0,928.29,562.09Z" class="cls-1" transform="translate(-726.28 -476.16)"/><path d="M969.14,527.53h8.72v7.14h-8.72v21a6,6,0,0,0,1.25,4.15c.84.92,2.3,1.39,4.36,1.39.51,0,1.06,0,1.68-.08a7,7,0,0,0,1.43-.26v6.71a19.54,19.54,0,0,1-1.93.46,17.05,17.05,0,0,1-3.44.29,11.2,11.2,0,0,1-8.22-3q-3-3-3-8.51V534.67h-7.71v-7.14h2.17c2.19,0,3.77-.58,4.74-1.76a6.68,6.68,0,0,0,1.47-4.44v-6.54h7.22Z" class="cls-1" transform="translate(-726.28 -476.16)"/><path d="M986.58,512.27a5.56,5.56,0,0,1,1.63-4.07,5.42,5.42,0,0,1,4-1.63,5.57,5.57,0,0,1,5.7,5.7,5.46,5.46,0,0,1-1.63,4,5.58,5.58,0,0,1-4.07,1.63,5.57,5.57,0,0,1-5.62-5.62Zm1.76,55.61V527.53h7.8v40.35Z" class="cls-1" transform="translate(-726.28 -476.16)"/><path d="M1069.44,508.42h8.64l-22.9,59.46h-8.13l-22.4-59.46h8.73l17.94,48.89Z" class="cls-1" transform="translate(-726.28 -476.16)"/><path d="M1098.29,526.28a20.5,20.5,0,0,1,8.3,1.64,20.1,20.1,0,0,1,6.54,4.48,19.84,19.84,0,0,1,4.28,6.75,23.33,23.33,0,0,1,1.51,8.52,23.65,23.65,0,0,1-1.51,8.55,19.73,19.73,0,0,1-4.28,6.79,20.12,20.12,0,0,1-6.54,4.49,21.95,21.95,0,0,1-16.6,0,20.12,20.12,0,0,1-6.54-4.49,19.58,19.58,0,0,1-4.28-6.79,23.65,23.65,0,0,1-1.51-8.55,23.33,23.33,0,0,1,1.51-8.52,19.69,19.69,0,0,1,4.28-6.75,20.1,20.1,0,0,1,6.54-4.48A20.46,20.46,0,0,1,1098.29,526.28Zm0,35.81a12.63,12.63,0,0,0,4.78-.92,11.56,11.56,0,0,0,4-2.77,13,13,0,0,0,2.77-4.53,17.6,17.6,0,0,0,1-6.2,17.31,17.31,0,0,0-1-6.17,13.15,13.15,0,0,0-2.77-4.49,11.4,11.4,0,0,0-4-2.76,12.75,12.75,0,0,0-9.56,0,11.52,11.52,0,0,0-4,2.76,13.46,13.46,0,0,0-2.77,4.49,17.54,17.54,0,0,0-1,6.17,17.84,17.84,0,0,0,1,6.2,13.35,13.35,0,0,0,2.77,4.53,11.69,11.69,0,0,0,4,2.77A12.63,12.63,0,0,0,1098.29,562.09Z" class="cls-1" transform="translate(-726.28 -476.16)"/><path d="M1139.13,527.53h8.72v7.14h-8.72v21a6,6,0,0,0,1.26,4.15c.84.92,2.29,1.39,4.36,1.39.5,0,1.06,0,1.68-.08a6.86,6.86,0,0,0,1.42-.26v6.71a18.82,18.82,0,0,1-1.93.46,17,17,0,0,1-3.43.29,11.24,11.24,0,0,1-8.23-3q-3-3-3-8.51V534.67h-7.72v-7.14h2.18c2.18,0,3.76-.58,4.74-1.76a6.68,6.68,0,0,0,1.47-4.44v-6.54h7.21Z" class="cls-1" transform="translate(-726.28 -476.16)"/><path d="M1193.06,556.39a17.78,17.78,0,0,1-2.48,5,18.13,18.13,0,0,1-3.94,4,19.13,19.13,0,0,1-5.24,2.72,19.85,19.85,0,0,1-6.46,1,21.21,21.21,0,0,1-7.71-1.42,18.87,18.87,0,0,1-6.5-4.19,19.84,19.84,0,0,1-4.45-6.8,24.1,24.1,0,0,1-1.63-9.14,22.78,22.78,0,0,1,1.59-8.68,21.56,21.56,0,0,1,4.24-6.71,18.69,18.69,0,0,1,6.16-4.36,18,18,0,0,1,7.3-1.55,21,21,0,0,1,8.26,1.55,16.59,16.59,0,0,1,6.08,4.32,19.16,19.16,0,0,1,3.73,6.67,27.21,27.21,0,0,1,1.3,8.59c0,.5,0,1,0,1.43a8.16,8.16,0,0,1-.13,1.09h-30.36a14.07,14.07,0,0,0,1,4.94,11.29,11.29,0,0,0,6.41,6.42,12.68,12.68,0,0,0,4.74.88q4.95,0,7.55-2.35a13.51,13.51,0,0,0,3.77-5.78Zm-8-12.84a11.07,11.07,0,0,0-2.93-7.34c-1.85-2-4.56-3-8.14-3a10.87,10.87,0,0,0-4.49.88,10.37,10.37,0,0,0-3.35,2.35,11.73,11.73,0,0,0-2.22,3.31,10.2,10.2,0,0,0-.93,3.77Z" class="cls-1" transform="translate(-726.28 -476.16)"/><rect width="48.62" height="9.05" x="11.52" y="49.75" class="cls-2" rx="4"/><rect width="48.7" height="9.05" x="19.81" y="87.14" class="cls-3" rx="4"/><rect width="48.62" height="9.05" x="11.52" y="68.45" class="cls-4" rx="4"/><rect width="48.7" height="9.05" x="19.81" y="31.06" class="cls-5" rx="4"/><circle cx="64" cy="64" r="62" class="cls-6"/></svg>