<svg xmlns="http://www.w3.org/2000/svg" id="Layer_1" data-name="Layer 1" viewBox="0 0 448.81 116.39"><defs><style>.cls-1{fill:#fff}.cls-2{fill:#1db954}.cls-3{fill:#f1c40f}.cls-4{fill:#3498db}.cls-5{fill:#e74c3c}.cls-6{fill:none}</style></defs><title>DarkBackground</title><path d="M836.14,526a13.07,13.07,0,0,0-1.09-3.4,11.6,11.6,0,0,0-2.35-3.31,12,12,0,0,0-3.77-2.47,14.91,14.91,0,0,0-10-.21,11.46,11.46,0,0,0-3.64,2.1,9.12,9.12,0,0,0-3.23,7,8.24,8.24,0,0,0,1.93,5.49,9.87,9.87,0,0,0,5.7,3.15l8.89,1.93q7.47,1.67,11.45,6A15.21,15.21,0,0,1,844,553a16.26,16.26,0,0,1-1.42,6.63,16.88,16.88,0,0,1-4.11,5.61,20.49,20.49,0,0,1-6.46,3.9,23.44,23.44,0,0,1-8.55,1.47,25.2,25.2,0,0,1-9.36-1.59,22,22,0,0,1-6.71-4.11,18.69,18.69,0,0,1-4.23-5.67,20.71,20.71,0,0,1-1.93-6.32l7.88-2.52a16.91,16.91,0,0,0,1.22,4.82,12.1,12.1,0,0,0,2.76,4.06,13.49,13.49,0,0,0,4.37,2.82,15.43,15.43,0,0,0,5.91,1q6.12,0,9.18-2.77a8.72,8.72,0,0,0,3.06-6.71,8.63,8.63,0,0,0-2.18-5.75,11.56,11.56,0,0,0-6.71-3.48l-8.47-1.84a20.81,20.81,0,0,1-10.44-5.5q-4.07-4.07-4.07-10.77a15.46,15.46,0,0,1,1.52-6.71,18.2,18.2,0,0,1,4.15-5.62,20.62,20.62,0,0,1,6.24-3.9,20.28,20.28,0,0,1,7.72-1.47A23.9,23.9,0,0,1,832,510a19.07,19.07,0,0,1,6,3.57,17.19,17.19,0,0,1,3.73,4.78,19.83,19.83,0,0,1,1.85,5Z" class="cls-1" transform="translate(-735.2 -481.82)"/><path d="M852,585.31V529h7.63v6.29a13.92,13.92,0,0,1,5.12-5.11,15.77,15.77,0,0,1,8.38-2.1,18.49,18.49,0,0,1,8,1.64,16.19,16.19,0,0,1,5.79,4.48,20.33,20.33,0,0,1,3.52,6.71,27.24,27.24,0,0,1,1.22,8.22,26.77,26.77,0,0,1-1.26,8.38,20,20,0,0,1-3.69,6.76,17.24,17.24,0,0,1-5.91,4.53,18.46,18.46,0,0,1-7.93,1.63,15.83,15.83,0,0,1-8-1.93,13.79,13.79,0,0,1-5-4.61v21.39Zm31.61-36.15a17.83,17.83,0,0,0-.84-5.58,13.92,13.92,0,0,0-2.34-4.44,10.87,10.87,0,0,0-3.73-3,11.33,11.33,0,0,0-5-1.09,11.08,11.08,0,0,0-4.9,1.09,11.66,11.66,0,0,0-3.81,3,13,13,0,0,0-2.44,4.44,17.83,17.83,0,0,0-.84,5.58,18.82,18.82,0,0,0,.84,5.74,12.89,12.89,0,0,0,2.44,4.53,11.16,11.16,0,0,0,3.81,2.94,12.08,12.08,0,0,0,9.85,0,10.91,10.91,0,0,0,3.74-2.94,13.29,13.29,0,0,0,2.38-4.53A18.82,18.82,0,0,0,883.6,549.16Z" class="cls-1" transform="translate(-735.2 -481.82)"/><path d="M919,527.77a20.7,20.7,0,0,1,8.3,1.64,20.34,20.34,0,0,1,6.54,4.49,19.89,19.89,0,0,1,4.28,6.75,23.49,23.49,0,0,1,1.5,8.51,23.82,23.82,0,0,1-1.5,8.55,19.92,19.92,0,0,1-4.28,6.8A20.5,20.5,0,0,1,927.3,569a22,22,0,0,1-16.61,0,20.28,20.28,0,0,1-6.54-4.49,19.77,19.77,0,0,1-4.28-6.8,23.61,23.61,0,0,1-1.51-8.55,23.28,23.28,0,0,1,1.51-8.51,19.74,19.74,0,0,1,4.28-6.75,20.12,20.12,0,0,1,6.54-4.49A20.71,20.71,0,0,1,919,527.77Zm0,35.81a12.51,12.51,0,0,0,4.78-.92,11.38,11.38,0,0,0,4-2.77,13.25,13.25,0,0,0,2.77-4.52,17.66,17.66,0,0,0,1-6.21,17.36,17.36,0,0,0-1-6.17,13.26,13.26,0,0,0-2.77-4.48,11.65,11.65,0,0,0-4-2.77,12.9,12.9,0,0,0-9.57,0,11.65,11.65,0,0,0-4,2.77,13.1,13.1,0,0,0-2.77,4.48,17.35,17.35,0,0,0-1,6.17,17.66,17.66,0,0,0,1,6.21,13.1,13.1,0,0,0,2.77,4.52,11.38,11.38,0,0,0,4,2.77A12.49,12.49,0,0,0,919,563.58Z" class="cls-1" transform="translate(-735.2 -481.82)"/><path d="M959.84,529h8.72v7.13h-8.72v21a6,6,0,0,0,1.26,4.15c.84.92,2.29,1.38,4.36,1.38.5,0,1.06,0,1.68-.08a6.45,6.45,0,0,0,1.42-.25V569c-.34.11-1,.26-1.93.45a16.91,16.91,0,0,1-3.44.3,11.2,11.2,0,0,1-8.22-3q-3-3-3-8.51V536.16h-7.72V529h2.18q3.27,0,4.74-1.76a6.72,6.72,0,0,0,1.47-4.45v-6.53h7.21Z" class="cls-1" transform="translate(-735.2 -481.82)"/><path d="M977.28,513.77a5.53,5.53,0,0,1,1.64-4.07,5.43,5.43,0,0,1,4-1.64,5.59,5.59,0,0,1,5.7,5.71,5.42,5.42,0,0,1-1.63,4,5.53,5.53,0,0,1-4.07,1.64,5.6,5.6,0,0,1-5.62-5.62Zm1.76,55.6V529h7.8v40.34Z" class="cls-1" transform="translate(-735.2 -481.82)"/><path d="M1060.14,509.91h8.64l-22.9,59.46h-8.13l-22.39-59.46h8.72l18,48.9Z" class="cls-1" transform="translate(-735.2 -481.82)"/><path d="M1089,527.77a20.71,20.71,0,0,1,8.31,1.64,20.34,20.34,0,0,1,6.54,4.49,19.72,19.72,0,0,1,4.27,6.75,23.28,23.28,0,0,1,1.51,8.51,23.61,23.61,0,0,1-1.51,8.55,19.75,19.75,0,0,1-4.27,6.8,20.5,20.5,0,0,1-6.54,4.49,22,22,0,0,1-16.61,0,20.28,20.28,0,0,1-6.54-4.49,19.77,19.77,0,0,1-4.28-6.8,23.61,23.61,0,0,1-1.51-8.55,23.28,23.28,0,0,1,1.51-8.51,19.74,19.74,0,0,1,4.28-6.75,20.12,20.12,0,0,1,6.54-4.49A20.67,20.67,0,0,1,1089,527.77Zm0,35.81a12.44,12.44,0,0,0,4.78-.92,11.42,11.42,0,0,0,4-2.77,13.25,13.25,0,0,0,2.77-4.52,17.66,17.66,0,0,0,1-6.21,17.36,17.36,0,0,0-1-6.17,13.26,13.26,0,0,0-2.77-4.48,11.69,11.69,0,0,0-4-2.77,12.88,12.88,0,0,0-9.56,0,11.56,11.56,0,0,0-4,2.77,13.1,13.1,0,0,0-2.77,4.48,17.35,17.35,0,0,0-1,6.17,17.66,17.66,0,0,0,1,6.21,13.1,13.1,0,0,0,2.77,4.52,11.29,11.29,0,0,0,4,2.77A12.44,12.44,0,0,0,1089,563.58Z" class="cls-1" transform="translate(-735.2 -481.82)"/><path d="M1129.83,529h8.73v7.13h-8.73v21a6,6,0,0,0,1.26,4.15c.84.92,2.29,1.38,4.36,1.38.51,0,1.06,0,1.68-.08a6.56,6.56,0,0,0,1.43-.25V569c-.34.11-1,.26-1.93.45a17,17,0,0,1-3.44.3,11.17,11.17,0,0,1-8.22-3c-2-2-3-4.82-3-8.51V536.16h-7.71V529h2.17q3.27,0,4.74-1.76a6.72,6.72,0,0,0,1.47-4.45v-6.53h7.21Z" class="cls-1" transform="translate(-735.2 -481.82)"/><path d="M1183.76,557.89a17.86,17.86,0,0,1-6.42,9,18.47,18.47,0,0,1-5.24,2.72,19.79,19.79,0,0,1-6.45,1,21,21,0,0,1-7.72-1.43,18.87,18.87,0,0,1-6.5-4.19,19.77,19.77,0,0,1-4.44-6.79,24,24,0,0,1-1.64-9.15,22.63,22.63,0,0,1,1.6-8.68,21.78,21.78,0,0,1,4.23-6.71,18.94,18.94,0,0,1,6.16-4.36,18,18,0,0,1,7.3-1.55,21,21,0,0,1,8.26,1.55,16.74,16.74,0,0,1,6.08,4.32,19.25,19.25,0,0,1,3.73,6.67,27,27,0,0,1,1.3,8.6c0,.5,0,1,0,1.43a8,8,0,0,1-.13,1.08h-30.36a14.36,14.36,0,0,0,1,5,11.5,11.5,0,0,0,2.56,3.9,11.23,11.23,0,0,0,3.86,2.52,12.88,12.88,0,0,0,4.74.88q4.95,0,7.54-2.35a13.66,13.66,0,0,0,3.78-5.79Zm-8-12.84a11.07,11.07,0,0,0-2.93-7.34c-1.85-2-4.56-3-8.14-3a10.82,10.82,0,0,0-4.48.89,10.29,10.29,0,0,0-3.36,2.34,12.22,12.22,0,0,0-2.22,3.32,9.94,9.94,0,0,0-.92,3.77Z" class="cls-1" transform="translate(-735.2 -481.82)"/><rect width="48.62" height="9.05" x="5.72" y="43.95" class="cls-2" rx="4"/><rect width="48.7" height="9.05" x="14.01" y="81.34" class="cls-3" rx="4"/><rect width="48.62" height="9.05" x="5.72" y="62.64" class="cls-4" rx="4"/><rect width="48.7" height="9.05" x="14.01" y="25.25" class="cls-5" rx="4"/><circle cx="58.2" cy="58.2" r="58.2" class="cls-6"/></svg>