<svg id="Layer_1" data-name="Layer 1" xmlns="http://www.w3.org/2000/svg" viewBox="0 0 467.02 128"><defs><style>.cls-1{fill:#fff;}.cls-2{fill:#1db954;}.cls-3{fill:#f1c40f;}.cls-4{fill:#3498db;}.cls-5{fill:#e74c3c;}.cls-6{fill:none;stroke:#fff;stroke-miterlimit:10;stroke-width:4px;}</style></defs><title>DarkBackgroundCircle</title><path class="cls-1" d="M833.38,525.78a13.52,13.52,0,0,0-1.1-3.4,11.76,11.76,0,0,0-2.34-3.31,11.91,11.91,0,0,0-3.78-2.47,14.88,14.88,0,0,0-10-.21,11.49,11.49,0,0,0-3.65,2.09,9.48,9.48,0,0,0-2.39,3.15,9.11,9.11,0,0,0-.84,3.9,8.31,8.31,0,0,0,1.93,5.49,10,10,0,0,0,5.71,3.15l8.89,1.93q7.45,1.67,11.44,6a15.22,15.22,0,0,1,4,10.66,16.07,16.07,0,0,1-1.43,6.62,16.69,16.69,0,0,1-4.11,5.62,20.67,20.67,0,0,1-6.46,3.9,23.37,23.37,0,0,1-8.55,1.46,25.11,25.11,0,0,1-9.35-1.59,21.54,21.54,0,0,1-6.71-4.1,18.73,18.73,0,0,1-4.24-5.67,20.94,20.94,0,0,1-1.92-6.33l7.88-2.51a16.83,16.83,0,0,0,1.21,4.81,12.21,12.21,0,0,0,2.77,4.07,13.36,13.36,0,0,0,4.36,2.81,15.33,15.33,0,0,0,5.92,1q6.12,0,9.18-2.77a8.78,8.78,0,0,0,.88-12.45,11.56,11.56,0,0,0-6.71-3.48l-8.47-1.85a20.64,20.64,0,0,1-10.44-5.49Q801,532.82,801,526.11a15.62,15.62,0,0,1,1.51-6.71,18.2,18.2,0,0,1,4.15-5.61,20.71,20.71,0,0,1,14-5.37,23.84,23.84,0,0,1,8.59,1.38,19.1,19.1,0,0,1,6,3.56,17.27,17.27,0,0,1,3.73,4.79,19.65,19.65,0,0,1,1.84,5Z" transform="translate(-726.64 -475.78)"/><path class="cls-1" d="M861.64,585.07V528.8h7.63v6.29a13.85,13.85,0,0,1,5.12-5.11,15.75,15.75,0,0,1,8.38-2.11,18.64,18.64,0,0,1,8,1.64,16.21,16.21,0,0,1,5.79,4.49,20.33,20.33,0,0,1,3.52,6.71,27.19,27.19,0,0,1,1.22,8.22,26.82,26.82,0,0,1-1.26,8.38,20.12,20.12,0,0,1-3.69,6.76,17.35,17.35,0,0,1-5.92,4.52,18.41,18.41,0,0,1-7.92,1.64,15.94,15.94,0,0,1-8-1.93,13.79,13.79,0,0,1-5-4.61v21.38Zm31.61-36.14a17.79,17.79,0,0,0-.84-5.58,14.07,14.07,0,0,0-2.34-4.45,11,11,0,0,0-3.73-3,11.19,11.19,0,0,0-5-1.09,10.94,10.94,0,0,0-4.9,1.09,11.91,11.91,0,0,0-3.82,3,13.3,13.3,0,0,0-2.43,4.45,17.79,17.79,0,0,0-.84,5.58,18.82,18.82,0,0,0,.84,5.74,13,13,0,0,0,2.43,4.53,11.29,11.29,0,0,0,3.82,2.94,12.08,12.08,0,0,0,9.85,0A10.78,10.78,0,0,0,890,559.2a13.14,13.14,0,0,0,2.39-4.53A18.82,18.82,0,0,0,893.25,548.93Z" transform="translate(-726.64 -475.78)"/><path class="cls-1" d="M928.64,527.54a20.71,20.71,0,0,1,8.31,1.64,20.31,20.31,0,0,1,6.54,4.48,19.91,19.91,0,0,1,4.27,6.75,23.33,23.33,0,0,1,1.51,8.52,23.65,23.65,0,0,1-1.51,8.55,19.7,19.7,0,0,1-4.27,6.79,20.18,20.18,0,0,1-6.54,4.49,22,22,0,0,1-16.61,0,20,20,0,0,1-6.54-4.49,19.73,19.73,0,0,1-4.28-6.79,23.65,23.65,0,0,1-1.51-8.55,23.33,23.33,0,0,1,1.51-8.52,19.78,19.78,0,0,1,10.82-11.23A20.67,20.67,0,0,1,928.64,527.54Zm0,35.81a12.72,12.72,0,0,0,4.79-.92,11.61,11.61,0,0,0,4-2.77,13.2,13.2,0,0,0,2.77-4.53,17.57,17.57,0,0,0,1-6.2,17.32,17.32,0,0,0-1-6.17,13.16,13.16,0,0,0-2.77-4.48,11.74,11.74,0,0,0-4-2.77,12.77,12.77,0,0,0-9.57,0,11.56,11.56,0,0,0-4,2.77,13,13,0,0,0-2.77,4.48,17.31,17.31,0,0,0-1,6.17,17.56,17.56,0,0,0,1,6.2,13,13,0,0,0,2.77,4.53,11.42,11.42,0,0,0,4,2.77A12.67,12.67,0,0,0,928.64,563.35Z" transform="translate(-726.64 -475.78)"/><path class="cls-1" d="M969.49,528.8h8.72v7.13h-8.72v21a6,6,0,0,0,1.25,4.15c.84.93,2.3,1.39,4.37,1.39.5,0,1.06,0,1.67-.08a7,7,0,0,0,1.43-.26v6.71a19.54,19.54,0,0,1-1.93.46,17.05,17.05,0,0,1-3.44.29,11.19,11.19,0,0,1-8.22-3q-3-3-3-8.51V535.93h-7.72V528.8h2.18q3.27,0,4.74-1.77a6.67,6.67,0,0,0,1.46-4.44v-6.54h7.22Z" transform="translate(-726.64 -475.78)"/><path class="cls-1" d="M986.93,513.53a5.56,5.56,0,0,1,1.63-4.06,5.41,5.41,0,0,1,4-1.64,5.59,5.59,0,0,1,5.7,5.7,5.42,5.42,0,0,1-1.63,4,5.53,5.53,0,0,1-4.07,1.63,5.57,5.57,0,0,1-5.62-5.62Zm1.76,55.61V528.8h7.8v40.34Z" transform="translate(-726.64 -475.78)"/><path class="cls-1" d="M1069.79,509.68h8.64l-22.9,59.46h-8.13L1025,509.68h8.72l18,48.89Z" transform="translate(-726.64 -475.78)"/><path class="cls-1" d="M1098.64,527.54a20.71,20.71,0,0,1,8.31,1.64,20.31,20.31,0,0,1,6.54,4.48,19.91,19.91,0,0,1,4.27,6.75,23.33,23.33,0,0,1,1.51,8.52,23.65,23.65,0,0,1-1.51,8.55,19.7,19.7,0,0,1-4.27,6.79,20.18,20.18,0,0,1-6.54,4.49,22,22,0,0,1-16.61,0,20,20,0,0,1-6.54-4.49,19.73,19.73,0,0,1-4.28-6.79,23.65,23.65,0,0,1-1.51-8.55,23.33,23.33,0,0,1,1.51-8.52,19.78,19.78,0,0,1,10.82-11.23A20.63,20.63,0,0,1,1098.64,527.54Zm0,35.81a12.63,12.63,0,0,0,4.78-.92,11.55,11.55,0,0,0,4-2.77,13,13,0,0,0,2.76-4.53,17.34,17.34,0,0,0,1-6.2,17.09,17.09,0,0,0-1-6.17,13,13,0,0,0-2.76-4.48,11.69,11.69,0,0,0-4-2.77,12.75,12.75,0,0,0-9.56,0,11.69,11.69,0,0,0-4,2.77,13.14,13.14,0,0,0-2.76,4.48,17.31,17.31,0,0,0-1,6.17,17.56,17.56,0,0,0,1,6.2,13.18,13.18,0,0,0,2.76,4.53,11.55,11.55,0,0,0,4,2.77A12.63,12.63,0,0,0,1098.64,563.35Z" transform="translate(-726.64 -475.78)"/><path class="cls-1" d="M1139.48,528.8h8.73v7.13h-8.73v21a6,6,0,0,0,1.26,4.15c.84.93,2.29,1.39,4.36,1.39.51,0,1.06,0,1.68-.08a7.11,7.11,0,0,0,1.43-.26v6.71a19.22,19.22,0,0,1-1.94.46,16.88,16.88,0,0,1-3.43.29,11.16,11.16,0,0,1-8.22-3c-2-2-3-4.82-3-8.51V535.93h-7.72V528.8h2.18q3.27,0,4.74-1.77a6.68,6.68,0,0,0,1.47-4.44v-6.54h7.21Z" transform="translate(-726.64 -475.78)"/><path class="cls-1" d="M1193.41,557.65a17.51,17.51,0,0,1-2.48,5,17.71,17.71,0,0,1-3.94,4,19,19,0,0,1-5.24,2.72,19.81,19.81,0,0,1-6.46,1,21.21,21.21,0,0,1-7.71-1.42,18.87,18.87,0,0,1-6.5-4.19,19.89,19.89,0,0,1-4.45-6.79,24.19,24.19,0,0,1-1.63-9.15,22.78,22.78,0,0,1,1.59-8.68,22,22,0,0,1,4.24-6.71,18.83,18.83,0,0,1,6.16-4.36,18,18,0,0,1,7.3-1.55,21,21,0,0,1,8.26,1.55,16.74,16.74,0,0,1,6.08,4.32,19.25,19.25,0,0,1,3.73,6.67,26.94,26.94,0,0,1,1.3,8.6c0,.5,0,1,0,1.42a8,8,0,0,1-.13,1.09h-30.36a14.17,14.17,0,0,0,1,4.95,11.6,11.6,0,0,0,2.56,3.9,11.12,11.12,0,0,0,3.85,2.51,12.75,12.75,0,0,0,4.74.88q4.95,0,7.55-2.35a13.62,13.62,0,0,0,3.78-5.78Zm-8-12.84a11,11,0,0,0-2.93-7.33c-1.85-2-4.56-3-8.14-3a10.79,10.79,0,0,0-4.48.88,10.31,10.31,0,0,0-3.36,2.35,12.06,12.06,0,0,0-2.22,3.32,10.15,10.15,0,0,0-.93,3.76Z" transform="translate(-726.64 -475.78)"/><rect class="cls-2" x="11.52" y="49.75" width="48.62" height="9.05" rx="4"/><rect class="cls-3" x="19.81" y="87.14" width="48.7" height="9.05" rx="4"/><rect class="cls-4" x="11.52" y="68.45" width="48.62" height="9.05" rx="4"/><rect class="cls-5" x="19.81" y="31.06" width="48.7" height="9.05" rx="4"/><circle class="cls-6" cx="64" cy="64" r="62"/></svg>