<svg xmlns="http://www.w3.org/2000/svg" id="Layer_1" data-name="Layer 1" viewBox="0 0 128 128"><defs><style>.cls-1{fill:#fff;stroke:#191414;stroke-miterlimit:10;stroke-width:4px}.cls-2{fill:#191414}.cls-3{fill:#1db954}.cls-4{fill:#f1c40f}.cls-5{fill:#3498db}.cls-6{fill:#e74c3c}</style></defs><title>FilledBrightBackgroundIconCircle</title><circle cx="64" cy="64" r="62" class="cls-1"/><path d="M1002.82,526.3a13.12,13.12,0,0,0-1.1-3.4,11.56,11.56,0,0,0-2.34-3.31,11.75,11.75,0,0,0-3.78-2.47,14.88,14.88,0,0,0-10-.21A11.6,11.6,0,0,0,982,519a9.48,9.48,0,0,0-2.39,3.15,9.09,9.09,0,0,0-.84,3.89,8.33,8.33,0,0,0,1.93,5.5,10,10,0,0,0,5.71,3.15l8.89,1.93q7.46,1.67,11.44,6a15.21,15.21,0,0,1,4,10.65,16.08,16.08,0,0,1-1.43,6.63,16.88,16.88,0,0,1-4.11,5.62,20.67,20.67,0,0,1-6.46,3.9,23.37,23.37,0,0,1-8.55,1.46,25.11,25.11,0,0,1-9.35-1.59,21.49,21.49,0,0,1-6.71-4.11,18.61,18.61,0,0,1-4.23-5.66,20.85,20.85,0,0,1-1.93-6.33l7.88-2.52a16.81,16.81,0,0,0,1.21,4.82,12.31,12.31,0,0,0,2.77,4.07,13.53,13.53,0,0,0,4.36,2.81,15.52,15.52,0,0,0,5.92,1.05q6.12,0,9.18-2.77a8.78,8.78,0,0,0,.88-12.45,11.56,11.56,0,0,0-6.71-3.48L985,542.9a20.79,20.79,0,0,1-10.44-5.49q-4.07-4.06-4.07-10.78a15.59,15.59,0,0,1,1.51-6.71,18.2,18.2,0,0,1,4.15-5.61,20.78,20.78,0,0,1,14-5.38,23.79,23.79,0,0,1,8.59,1.39,19.1,19.1,0,0,1,6,3.56,17.27,17.27,0,0,1,3.73,4.79,19.65,19.65,0,0,1,1.84,5Z" class="cls-2" transform="translate(-896.08 -476.3)"/><rect width="48.62" height="9.05" x="11.52" y="49.75" class="cls-3" rx="4"/><rect width="48.7" height="9.05" x="19.81" y="87.14" class="cls-4" rx="4"/><rect width="48.62" height="9.05" x="11.52" y="68.45" class="cls-5" rx="4"/><rect width="48.7" height="9.05" x="19.81" y="31.06" class="cls-6" rx="4"/></svg>