<svg xmlns="http://www.w3.org/2000/svg" id="Layer_1" data-name="Layer 1" viewBox="0 0 116.39 116.39"><defs><style>.cls-1{fill:#fff}.cls-2{fill:#1db954}.cls-3{fill:#f1c40f}.cls-4{fill:#3498db}.cls-5{fill:#e74c3c}.cls-6{fill:none}</style></defs><title>DarkBackgroundIcon</title><path d="M1002.93,526.15a13,13,0,0,0-1.09-3.39,11.47,11.47,0,0,0-2.35-3.31,11.59,11.59,0,0,0-3.77-2.47,15,15,0,0,0-10-.22,11.4,11.4,0,0,0-3.65,2.1A9.28,9.28,0,0,0,979.7,522a9.09,9.09,0,0,0-.84,3.89,8.28,8.28,0,0,0,1.93,5.5,10,10,0,0,0,5.7,3.14l8.89,1.93q7.47,1.68,11.45,6a15.24,15.24,0,0,1,4,10.65,16.11,16.11,0,0,1-1.43,6.63,16.88,16.88,0,0,1-4.11,5.62,20.47,20.47,0,0,1-6.46,3.89,23.2,23.2,0,0,1-8.55,1.47,25.11,25.11,0,0,1-9.35-1.59,21.56,21.56,0,0,1-6.71-4.11,18.81,18.81,0,0,1-4.24-5.66,20.85,20.85,0,0,1-1.93-6.33l7.89-2.52a16.57,16.57,0,0,0,1.21,4.82,12.42,12.42,0,0,0,2.77,4.07,13.48,13.48,0,0,0,4.36,2.81,15.5,15.5,0,0,0,5.91,1q6.14,0,9.19-2.77a8.79,8.79,0,0,0,.88-12.46,11.59,11.59,0,0,0-6.71-3.48l-8.47-1.84a20.79,20.79,0,0,1-10.44-5.49q-4.08-4.07-4.07-10.78a15.45,15.45,0,0,1,1.51-6.71,18.2,18.2,0,0,1,4.15-5.62,20.34,20.34,0,0,1,6.25-3.89,20,20,0,0,1,7.71-1.48,23.85,23.85,0,0,1,8.6,1.39,18.86,18.86,0,0,1,6,3.56,17.23,17.23,0,0,1,3.74,4.78,19.92,19.92,0,0,1,1.84,5Z" class="cls-1" transform="translate(-902 -481.96)"/><rect width="48.62" height="9.05" x="5.72" y="43.95" class="cls-2" rx="4"/><rect width="48.7" height="9.05" x="14.01" y="81.34" class="cls-3" rx="4"/><rect width="48.62" height="9.05" x="5.72" y="62.64" class="cls-4" rx="4"/><rect width="48.7" height="9.05" x="14.01" y="25.25" class="cls-5" rx="4"/><circle cx="58.2" cy="58.2" r="58.2" class="cls-6"/></svg>