<svg xmlns="http://www.w3.org/2000/svg" id="Layer_1" data-name="Layer 1" viewBox="0 0 128 128"><defs><style>.cls-1{fill:#fff}.cls-2{fill:#1db954}.cls-3{fill:#f1c40f}.cls-4{fill:#3498db}.cls-5{fill:#e74c3c}.cls-6{fill:none;stroke:#fff;stroke-miterlimit:10;stroke-width:4px}</style></defs><title>DarkBackgroundIconCircle</title><path d="M1003.17,525.92a13.07,13.07,0,0,0-1.09-3.4,11.6,11.6,0,0,0-2.35-3.31,12,12,0,0,0-3.77-2.47,14.91,14.91,0,0,0-10-.21,11.46,11.46,0,0,0-3.64,2.1,9.12,9.12,0,0,0-3.23,7,8.24,8.24,0,0,0,1.93,5.49,9.87,9.87,0,0,0,5.7,3.15l8.89,1.93c5,1.11,8.79,3.13,11.45,6a15.26,15.26,0,0,1,4,10.66,16.26,16.26,0,0,1-1.42,6.63,16.88,16.88,0,0,1-4.11,5.61,20.49,20.49,0,0,1-6.46,3.9,23.44,23.44,0,0,1-8.55,1.47,25.4,25.4,0,0,1-9.36-1.59,22,22,0,0,1-6.71-4.11,18.69,18.69,0,0,1-4.23-5.67,20.71,20.71,0,0,1-1.93-6.32l7.88-2.52a16.91,16.91,0,0,0,1.22,4.82,12.1,12.1,0,0,0,2.76,4.06,13.49,13.49,0,0,0,4.37,2.82,15.43,15.43,0,0,0,5.91,1.05q6.12,0,9.18-2.77a8.74,8.74,0,0,0,3.06-6.71,8.61,8.61,0,0,0-2.18-5.75,11.56,11.56,0,0,0-6.71-3.48l-8.47-1.84a20.81,20.81,0,0,1-10.44-5.5q-4.07-4.06-4.07-10.77a15.46,15.46,0,0,1,1.52-6.71,18,18,0,0,1,4.15-5.62,20.62,20.62,0,0,1,6.24-3.9,20.28,20.28,0,0,1,7.72-1.47,23.9,23.9,0,0,1,8.6,1.38,19.07,19.07,0,0,1,6,3.57,17.19,17.19,0,0,1,3.73,4.78,20.08,20.08,0,0,1,1.85,5Z" class="cls-1" transform="translate(-896.43 -475.92)"/><rect width="48.62" height="9.05" x="11.52" y="49.75" class="cls-2" rx="4"/><rect width="48.7" height="9.05" x="19.81" y="87.14" class="cls-3" rx="4"/><rect width="48.62" height="9.05" x="11.52" y="68.45" class="cls-4" rx="4"/><rect width="48.7" height="9.05" x="19.81" y="31.06" class="cls-5" rx="4"/><circle cx="64" cy="64" r="62" class="cls-6"/></svg>