<?xml version="1.0" encoding="UTF-8" standalone="no"?>
<svg
   xmlns:dc="http://purl.org/dc/elements/1.1/"
   xmlns:cc="http://creativecommons.org/ns#"
   xmlns:rdf="http://www.w3.org/1999/02/22-rdf-syntax-ns#"
   xmlns:svg="http://www.w3.org/2000/svg"
   xmlns="http://www.w3.org/2000/svg"
   viewBox="0 0 133.33333 133.33333"
   height="133.33333"
   width="133.33333"
   xml:space="preserve"
   id="svg2"
   version="1.1"><metadata
     id="metadata8"><rdf:RDF><cc:Work
         rdf:about=""><dc:format>image/svg+xml</dc:format><dc:type
           rdf:resource="http://purl.org/dc/dcmitype/StillImage" /></cc:Work></rdf:RDF></metadata><defs
     id="defs6"><clipPath
       id="clipPath18"
       clipPathUnits="userSpaceOnUse"><path
         id="path16"
         d="M 0,100 H 100 V 0 H 0 Z" /></clipPath></defs><g
     transform="matrix(1.3333333,0,0,-1.3333333,0,133.33333)"
     id="g10"><g
       id="g12"><g
         clip-path="url(#clipPath18)"
         id="g14"><g
           transform="translate(100,50)"
           id="g20"><path
             id="path22"
             style="fill:#1db954;fill-opacity:1;fill-rule:nonzero;stroke:none"
             d="m 0,0 c 0,-27.614 -22.386,-50 -50,-50 -27.614,0 -50,22.386 -50,50 0,27.614 22.386,50 50,50 C -22.386,50 0,27.614 0,0" /></g><g
           transform="translate(69.5313,15.7568)"
           id="g24"><path
             id="path26"
             style="fill:#000000;fill-opacity:1;fill-rule:nonzero;stroke:none"
             d="m 0,0 -59.363,-5.229 c -2.254,-0.198 -3.532,1.636 -2.854,4.097 l 17.846,64.804 c 0.678,2.46 3.055,4.616 5.308,4.814 l 59.364,5.228 c 2.254,0.199 3.531,-1.635 2.854,-4.095 L 5.309,4.814 C 4.631,2.354 2.254,0.198 0,0" /></g><text
           id="text30"
           style="font-variant:normal;font-weight:normal;font-stretch:normal;font-size:85.49595642px;font-family:'HK Grotesk';-inkscape-font-specification:HKGrotesk-Regular;writing-mode:lr-tb;fill:#ffffff;fill-opacity:1;fill-rule:nonzero;stroke:none"
           transform="matrix(0.95269767,0.30391963,0.30391963,-0.95269767,35.56,15.4977)"><tspan
             id="tspan28"
             y="0"
             x="0">S</tspan></text>
<g
           transform="translate(58.4717,22.106)"
           id="g32"><path
             id="path34"
             style="fill:none;stroke:#ffffff;stroke-width:1;stroke-linecap:butt;stroke-linejoin:miter;stroke-miterlimit:10;stroke-dasharray:none;stroke-opacity:1"
             d="m 0,0 c 9.983,3.185 15.535,11.878 12.389,21.743 -5.785,18.135 -31.944,6.592 -35.965,19.199 -1.637,5.131 1.708,9.616 6.401,11.113 4.494,1.433 9.33,0.697 13.005,-2.993 l 3.719,4.691 C -5.854,58.602 -12.23,59.635 -18.833,57.528 -27.186,54.864 -32.276,47.062 -29.523,38.432 -24.068,21.329 1.785,33.828 6.416,19.311 8.586,12.51 4.973,7.764 -1.748,5.62 -8.43,3.488 -15.656,5.127 -18.875,12.471 L -24.203,8.843 C -19.402,-0.712 -9.146,-2.918 0,0 Z" /></g></g></g></g></svg>