<svg xmlns="http://www.w3.org/2000/svg" width="933.333" height="933.333" version="1" viewBox="0 0 700 700"><path d="M335 .6c-70.7 3.8-135.1 26.3-190.1 66.3-72.6 53-121.5 129.8-138.3 217.6-7.8 40.7-8 86.1-.5 127.9 21.7 121.4 108.1 223.9 224.1 266 112.6 40.8 236.9 21.9 331.8-50.5 48.4-36.8 88.2-88.5 111-144.1 51.5-125.3 26.8-268-63.7-368.3C552 52 473.1 11.7 388 2.6 373.8 1 346 0 335 .6zm28.9 153.9c10.1 5.1 13.4 11.7 12.9 26.2-.3 9.4-.5 10.4-3.3 14.4-4.2 5.9-9.9 9.7-16.6 10.9-3.7.7-48.2 1-130 .8l-124.4-.3-5.4-3C88 198.5 84 191 84 179c0-11.9 4.4-20 13.3-24.5l5.1-2.5H359.1l4.8 2.5zm194.1 8c24.6 4.3 45.2 14 61.7 29 13 11.7 24 29.8 29.9 48.8 1.4 4.8 2.5 9 2.3 9.2-1.3 1.2-44.4 16.4-44.9 15.8-.4-.5-1.4-3.7-2.4-7.3-6.6-24.9-25.1-43.1-51.1-50.1-11.3-3.1-32.6-3.1-43.8-.1-15.5 4.2-29.2 13.4-37 24.8-6.5 9.6-8.9 16.8-9.5 28.5-.8 17.3 3.5 28.6 14.9 39.4 10.9 10.2 16 12.2 54.4 20.5 45.3 9.9 55.4 13 72.3 22.4 33.1 18.3 51.7 51.3 49.9 88.1-1.3 26-11.1 48-29.7 66.6-16.4 16.4-37 27.3-62.5 33-13.1 3-41.2 3.7-56.2 1.5-47.7-7-85.4-34.9-101.3-75-3.2-7.9-8-25.2-8-28.7 0-1.5 3.5-2.9 19.3-7.9 10.5-3.4 21.2-6.8 23.6-7.6 2.4-.8 4.5-1.3 4.8-1.1.2.3.8 3.3 1.4 6.8 1.5 9.4 6.4 23.5 10.9 31 10.1 17.1 27.8 30 48.5 35.5 10.7 2.9 41.9 2.6 53-.5 16.7-4.5 28-12 35.8-23.8 6.7-10 9-17.7 8.9-29.3-.1-22.1-11.1-38.7-32.7-48.9-9.4-4.5-8.1-4.2-49-13-17.6-3.8-35.4-8.2-39.5-9.6-16-5.8-32.5-15.9-43.9-26.8-18.3-17.7-27.3-42.7-25.8-71.2 2.7-51.1 46.9-94.3 103.7-101.4 9.6-1.2 31.2-.5 42 1.4zM313.6 266.7c5.3 2.8 10.7 9.1 12.2 14.2 1.6 5 1.5 16.3 0 21.5-1.6 5.5-9.9 13.8-15.4 15.4-3.2.9-34.2 1.2-130.5 1.2-125 0-126.4-.1-130.9-2.1-5.5-2.5-9.5-6.2-12.3-11.4-3-5.5-3.2-22.2-.3-27.5 3.5-6.6 8.7-11 15.6-13.1 1.4-.4 59.9-.7 130-.6l127.5.2 4.1 2.2zm-.3 112.2c5.4 2.7 9.2 6.8 12 13 1.6 3.6 1.9 6 1.5 13.6-.3 8.2-.7 9.9-3.4 14.1-2 3.3-4.8 6-8.4 8.1l-5.4 3.3H181c-122.3 0-128.7-.1-132.5-1.9-4.8-2.2-9.8-7.1-12.1-12-2.2-4.6-3-17.6-1.4-22.7 2.7-8.7 9.7-15.4 18.3-17.5 1.8-.4 59.9-.6 129.2-.6l126 .2 4.8 2.4zm48.4 111.6c6 2.5 10.2 6.3 13 11.8 2.3 4.5 2.6 6.5 2.6 14.2.1 8.1-.2 9.6-2.8 14.4-1.6 2.9-4.3 6.4-6 7.7-7.5 5.7-.9 5.4-138.4 5.4H103.5l-5-2.4c-9.8-4.6-14.4-12.5-14.5-24.7 0-9.8 2-15.5 7.3-20.7 7.7-7.6-2.3-7.1 139.5-7.1 112.1-.1 127.7.1 130.9 1.4z"/></svg>