<svg data-name="Layer 1" xmlns="http://www.w3.org/2000/svg" viewBox="0 0 100 100"><circle cx="50" cy="50" r="50" fill="#1db954"/><g data-name="Layer 2"><path d="M69.53 84.24l-59.36 5.23c-2.26.2-3.53-1.63-2.86-4.09l17.85-64.81a6.76 6.76 0 0 1 5.31-4.81l59.36-5.23c2.26-.2 3.53 1.63 2.86 4.09L74.84 79.43a6.76 6.76 0 0 1-5.31 4.81z"/><path d="M34.27 69.05l5.33-3.63c3.22 7.35 10.44 9 17.12 6.85s10.34-6.89 8.17-13.69C60.26 44.06 34.4 56.56 29 39.46c-2.81-8.63 2.29-16.46 10.64-19.1 6.6-2.1 13-1.07 18.38 3.78l-3.72 4.69a12.41 12.41 0 0 0-13-3c-4.7 1.49-8 6-6.4 11.11 4 12.61 30.18 1.06 36 19.2C74 66 68.46 74.71 58.47 77.89c-9.14 2.92-19.4.72-24.2-8.84z" fill="#fff" stroke="#fff" stroke-miterlimit="10"/></g></svg>